<?xml version="1.0" encoding="UTF-8" standalone="no"?>
<!-- Created with Inkscape (http://www.inkscape.org/) -->

<svg
   width="16mm"
   height="24mm"
   viewBox="0 0 16 24"
   version="1.1"
   id="svg5"
   sodipodi:docname="wizfi360_pa.svg"
   inkscape:version="1.2 (1:1.2.1+202207142221+cd75a1ee6d)"
   xmlns:inkscape="http://www.inkscape.org/namespaces/inkscape"
   xmlns:sodipodi="http://sodipodi.sourceforge.net/DTD/sodipodi-0.dtd"
   xmlns="http://www.w3.org/2000/svg"
   xmlns:svg="http://www.w3.org/2000/svg"
   xmlns:rdf="http://www.w3.org/1999/02/22-rdf-syntax-ns#"
   xmlns:cc="http://creativecommons.org/ns#"
   xmlns:dc="http://purl.org/dc/elements/1.1/">
  <title
     id="title1824">WizFi360-PA</title>
  <sodipodi:namedview
     id="namedview7"
     pagecolor="#ffffff"
     bordercolor="#666666"
     borderopacity="1.0"
     inkscape:showpageshadow="2"
     inkscape:pageopacity="0.0"
     inkscape:pagecheckerboard="0"
     inkscape:deskcolor="#d1d1d1"
     inkscape:document-units="mm"
     showgrid="false"
     inkscape:zoom="3.8342312"
     inkscape:cx="-47.727951"
     inkscape:cy="57.24746"
     inkscape:window-width="1294"
     inkscape:window-height="704"
     inkscape:window-x="72"
     inkscape:window-y="27"
     inkscape:window-maximized="1"
     inkscape:current-layer="layer1" />
  <defs
     id="defs2" />
  <g
     inkscape:label="Layer 1"
     inkscape:groupmode="layer"
     id="layer1">
    <rect
       style="fill:#000000;stroke:#000000;stroke-width:6.51237"
       id="rect219"
       width="9.4876299"
       height="17.487635"
       x="3.2561851"
       y="3.2561851" />
    <rect
       style="fill:#ffffff;fill-opacity:1;stroke:#ffffff;stroke-width:5.94586;stroke-opacity:1"
       id="rect275"
       width="6.0541363"
       height="9.4541349"
       x="4.9729319"
       y="9.97293"
       sodipodi:insensitive="true" />
    <rect
       style="fill:#d8a871;fill-opacity:1;stroke:#d8a871;stroke-width:0.413744;stroke-opacity:1"
       id="rect2225"
       width="0.20826431"
       height="2.7475028"
       x="4.6847458"
       y="0.20687176" />
    <rect
       style="fill:#d8a871;fill-opacity:1;stroke:#d8a871;stroke-width:0.413744;stroke-opacity:1"
       id="rect2229"
       width="0.20826431"
       height="2.7475028"
       x="7.3570752"
       y="0.20687176" />
    <g
       id="g10941">
      <g
         id="g2253"
         transform="translate(-0.38879266)">
        <rect
           style="fill:#d8a871;fill-opacity:1;stroke:#d8a871;stroke-width:0.486465;stroke-opacity:1"
           id="rect1739"
           width="0.1355428"
           height="5.8360281"
           x="1.3018147"
           y="0.2432325" />
        <rect
           style="fill:#d8a871;fill-opacity:1;stroke:#d8a871;stroke-width:0.443963;stroke-opacity:1"
           id="rect2221"
           width="0.1780449"
           height="3.700449"
           x="0.22198145"
           y="-4.9810123"
           transform="rotate(90)" />
        <rect
           style="fill:#d8a871;fill-opacity:1;stroke:#d8a871;stroke-width:0.481489;stroke-opacity:1"
           id="rect2223"
           width="0.14051883"
           height="5.5147877"
           x="2.9907446"
           y="0.24074449" />
        <rect
           style="fill:#d8a871;fill-opacity:1;stroke:#d8a871;stroke-width:0.419119;stroke-opacity:1"
           id="rect2227"
           width="0.20288895"
           height="2.8940537"
           x="2.7639077"
           y="-7.9551692"
           transform="rotate(90)" />
        <rect
           style="fill:#d8a871;fill-opacity:1;stroke:#d8a871;stroke-width:0.419119;stroke-opacity:1"
           id="rect2231"
           width="0.20288895"
           height="2.8940537"
           x="0.22755155"
           y="-10.652027"
           transform="rotate(90)" />
        <rect
           style="fill:#d8a871;fill-opacity:1;stroke:#d8a871;stroke-width:0.413744;stroke-opacity:1"
           id="rect2233"
           width="0.20826431"
           height="2.7475028"
           x="10.591867"
           y="0.20687176" />
        <rect
           style="fill:#d8a871;fill-opacity:1;stroke:#d8a871;stroke-width:0.405079;stroke-opacity:1"
           id="rect2235"
           width="0.21692879"
           height="2.5284412"
           x="2.7568877"
           y="-13.124393"
           transform="rotate(90)" />
        <rect
           style="fill:#d8a871;fill-opacity:1;stroke:#d8a871;stroke-width:0.413744;stroke-opacity:1"
           id="rect2237"
           width="0.20826431"
           height="2.7475028"
           x="13.237699"
           y="0.20687176" />
        <rect
           style="fill:#d8a871;fill-opacity:1;stroke:#d8a871;stroke-width:0.390547;stroke-opacity:1"
           id="rect2239"
           width="0.23146142"
           height="2.2027094"
           x="0.21326531"
           y="-15.428809"
           transform="rotate(90)" />
        <rect
           style="fill:#d8a871;fill-opacity:1;stroke:#d8a871;stroke-width:0.470802;stroke-opacity:1"
           id="rect2241"
           width="0.15120564"
           height="4.9000382"
           x="15.252397"
           y="0.23540108" />
      </g>
    </g>
    <g
       id="g7189"
       transform="translate(16.090431,11.103343)">
      <path
         id="rect5919"
         style="fill:#d8a871;fill-opacity:1;stroke:#d8a871;stroke-width:0.00140249;stroke-dasharray:none;stroke-opacity:1"
         d="m -16.089974,10.097058 v 0.26355 a 0.32526755,0.33577284 0 0 1 0.324528,0.335897 0.32526755,0.33577284 0 0 1 -0.324528,0.335897 v 0.263549 h 1.998844 v -1.198893 z" />
      <ellipse
         style="fill:#ffffff;fill-opacity:1;stroke:#ffffff;stroke-width:0.003;stroke-dasharray:none;stroke-opacity:1"
         id="ellipse7184"
         cx="-15.032139"
         cy="10.696519"
         rx="0.32526755"
         ry="0.33577284" />
    </g>
    <g
       id="g8647"
       transform="translate(16.090431,9.1036432)">
      <path
         id="path8643"
         style="fill:#d8a871;fill-opacity:1;stroke:#d8a871;stroke-width:0.00140249;stroke-dasharray:none;stroke-opacity:1"
         d="m -16.089974,10.097058 v 0.26355 a 0.32526755,0.33577284 0 0 1 0.324528,0.335897 0.32526755,0.33577284 0 0 1 -0.324528,0.335897 v 0.263549 h 1.998844 v -1.198893 z" />
      <ellipse
         style="fill:#ffffff;fill-opacity:1;stroke:#ffffff;stroke-width:0.003;stroke-dasharray:none;stroke-opacity:1"
         id="ellipse8645"
         cx="-15.032139"
         cy="10.696519"
         rx="0.32526755"
         ry="0.33577284" />
    </g>
    <g
       id="g8653"
       transform="translate(16.090431,7.1036432)">
      <path
         id="path8649"
         style="fill:#d8a871;fill-opacity:1;stroke:#d8a871;stroke-width:0.00140249;stroke-dasharray:none;stroke-opacity:1"
         d="m -16.089974,10.097058 v 0.26355 a 0.32526755,0.33577284 0 0 1 0.324528,0.335897 0.32526755,0.33577284 0 0 1 -0.324528,0.335897 v 0.263549 h 1.998844 v -1.198893 z" />
      <ellipse
         style="fill:#ffffff;fill-opacity:1;stroke:#ffffff;stroke-width:0.003;stroke-dasharray:none;stroke-opacity:1"
         id="ellipse8651"
         cx="-15.032139"
         cy="10.696519"
         rx="0.32526755"
         ry="0.33577284" />
    </g>
    <g
       id="g8659"
       transform="translate(16.090431,5.1036432)">
      <path
         id="path8655"
         style="fill:#d8a871;fill-opacity:1;stroke:#d8a871;stroke-width:0.00140249;stroke-dasharray:none;stroke-opacity:1"
         d="m -16.089974,10.097058 v 0.26355 a 0.32526755,0.33577284 0 0 1 0.324528,0.335897 0.32526755,0.33577284 0 0 1 -0.324528,0.335897 v 0.263549 h 1.998844 v -1.198893 z" />
      <ellipse
         style="fill:#ffffff;fill-opacity:1;stroke:#ffffff;stroke-width:0.003;stroke-dasharray:none;stroke-opacity:1"
         id="ellipse8657"
         cx="-15.032139"
         cy="10.696519"
         rx="0.32526755"
         ry="0.33577284" />
    </g>
    <g
       id="g8665"
       transform="translate(16.090431,3.1036432)">
      <path
         id="path8661"
         style="fill:#d8a871;fill-opacity:1;stroke:#d8a871;stroke-width:0.00140249;stroke-dasharray:none;stroke-opacity:1"
         d="m -16.089974,10.097058 v 0.26355 a 0.32526755,0.33577284 0 0 1 0.324528,0.335897 0.32526755,0.33577284 0 0 1 -0.324528,0.335897 v 0.263549 h 1.998844 v -1.198893 z" />
      <ellipse
         style="fill:#ffffff;fill-opacity:1;stroke:#ffffff;stroke-width:0.003;stroke-dasharray:none;stroke-opacity:1"
         id="ellipse8663"
         cx="-15.032139"
         cy="10.696519"
         rx="0.32526755"
         ry="0.33577284" />
    </g>
    <g
       id="g8671"
       transform="translate(16.090431,1.1036432)">
      <path
         id="path8667"
         style="fill:#d8a871;fill-opacity:1;stroke:#d8a871;stroke-width:0.00140249;stroke-dasharray:none;stroke-opacity:1"
         d="m -16.089974,10.097058 v 0.26355 a 0.32526755,0.33577284 0 0 1 0.324528,0.335897 0.32526755,0.33577284 0 0 1 -0.324528,0.335897 v 0.263549 h 1.998844 v -1.198893 z" />
      <ellipse
         style="fill:#ffffff;fill-opacity:1;stroke:#ffffff;stroke-width:0.003;stroke-dasharray:none;stroke-opacity:1"
         id="ellipse8669"
         cx="-15.032139"
         cy="10.696519"
         rx="0.32526755"
         ry="0.33577284" />
    </g>
    <g
       id="g8677"
       transform="translate(16.090431,-0.89635676)">
      <path
         id="path8673"
         style="fill:#d8a871;fill-opacity:1;stroke:#d8a871;stroke-width:0.00140249;stroke-dasharray:none;stroke-opacity:1"
         d="m -16.089974,10.097058 v 0.26355 a 0.32526755,0.33577284 0 0 1 0.324528,0.335897 0.32526755,0.33577284 0 0 1 -0.324528,0.335897 v 0.263549 h 1.998844 v -1.198893 z" />
      <ellipse
         style="fill:#ffffff;fill-opacity:1;stroke:#ffffff;stroke-width:0.003;stroke-dasharray:none;stroke-opacity:1"
         id="ellipse8675"
         cx="-15.032139"
         cy="10.696519"
         rx="0.32526755"
         ry="0.33577284" />
    </g>
    <g
       id="g8683"
       transform="translate(16.090431,-2.8963568)">
      <path
         id="path8679"
         style="fill:#d8a871;fill-opacity:1;stroke:#d8a871;stroke-width:0.00140249;stroke-dasharray:none;stroke-opacity:1"
         d="m -16.089974,10.097058 v 0.26355 a 0.32526755,0.33577284 0 0 1 0.324528,0.335897 0.32526755,0.33577284 0 0 1 -0.324528,0.335897 v 0.263549 h 1.998844 v -1.198893 z" />
      <ellipse
         style="fill:#ffffff;fill-opacity:1;stroke:#ffffff;stroke-width:0.003;stroke-dasharray:none;stroke-opacity:1"
         id="ellipse8681"
         cx="-15.032139"
         cy="10.696519"
         rx="0.32526755"
         ry="0.33577284" />
    </g>
    <g
       id="g8689"
       transform="matrix(-1,0,0,1,-0.09042876,11.103343)">
      <path
         id="path8685"
         style="fill:#d8a871;fill-opacity:1;stroke:#d8a871;stroke-width:0.00140249;stroke-dasharray:none;stroke-opacity:1"
         d="m -16.089974,10.097058 v 0.26355 a 0.32526755,0.33577284 0 0 1 0.324528,0.335897 0.32526755,0.33577284 0 0 1 -0.324528,0.335897 v 0.263549 h 1.998844 v -1.198893 z" />
      <ellipse
         style="fill:#ffffff;fill-opacity:1;stroke:#ffffff;stroke-width:0.003;stroke-dasharray:none;stroke-opacity:1"
         id="ellipse8687"
         cx="-15.032139"
         cy="10.696519"
         rx="0.32526755"
         ry="0.33577284" />
    </g>
    <g
       id="g8695"
       transform="matrix(-1,0,0,1,-0.09042876,9.1036432)">
      <path
         id="path8691"
         style="fill:#d8a871;fill-opacity:1;stroke:#d8a871;stroke-width:0.00140249;stroke-dasharray:none;stroke-opacity:1"
         d="m -16.089974,10.097058 v 0.26355 a 0.32526755,0.33577284 0 0 1 0.324528,0.335897 0.32526755,0.33577284 0 0 1 -0.324528,0.335897 v 0.263549 h 1.998844 v -1.198893 z" />
      <ellipse
         style="fill:#ffffff;fill-opacity:1;stroke:#ffffff;stroke-width:0.003;stroke-dasharray:none;stroke-opacity:1"
         id="ellipse8693"
         cx="-15.032139"
         cy="10.696519"
         rx="0.32526755"
         ry="0.33577284" />
    </g>
    <g
       id="g8701"
       transform="matrix(-1,0,0,1,-0.09042876,7.1036432)">
      <path
         id="path8697"
         style="fill:#d8a871;fill-opacity:1;stroke:#d8a871;stroke-width:0.00140249;stroke-dasharray:none;stroke-opacity:1"
         d="m -16.089974,10.097058 v 0.26355 a 0.32526755,0.33577284 0 0 1 0.324528,0.335897 0.32526755,0.33577284 0 0 1 -0.324528,0.335897 v 0.263549 h 1.998844 v -1.198893 z" />
      <ellipse
         style="fill:#ffffff;fill-opacity:1;stroke:#ffffff;stroke-width:0.003;stroke-dasharray:none;stroke-opacity:1"
         id="ellipse8699"
         cx="-15.032139"
         cy="10.696519"
         rx="0.32526755"
         ry="0.33577284" />
    </g>
    <g
       id="g8707"
       transform="matrix(-1,0,0,1,-0.09042876,5.1036432)">
      <path
         id="path8703"
         style="fill:#d8a871;fill-opacity:1;stroke:#d8a871;stroke-width:0.00140249;stroke-dasharray:none;stroke-opacity:1"
         d="m -16.089974,10.097058 v 0.26355 a 0.32526755,0.33577284 0 0 1 0.324528,0.335897 0.32526755,0.33577284 0 0 1 -0.324528,0.335897 v 0.263549 h 1.998844 v -1.198893 z" />
      <ellipse
         style="fill:#ffffff;fill-opacity:1;stroke:#ffffff;stroke-width:0.003;stroke-dasharray:none;stroke-opacity:1"
         id="ellipse8705"
         cx="-15.032139"
         cy="10.696519"
         rx="0.32526755"
         ry="0.33577284" />
    </g>
    <g
       id="g8713"
       transform="matrix(-1,0,0,1,-0.09042876,3.1036432)">
      <path
         id="path8709"
         style="fill:#d8a871;fill-opacity:1;stroke:#d8a871;stroke-width:0.00140249;stroke-dasharray:none;stroke-opacity:1"
         d="m -16.089974,10.097058 v 0.26355 a 0.32526755,0.33577284 0 0 1 0.324528,0.335897 0.32526755,0.33577284 0 0 1 -0.324528,0.335897 v 0.263549 h 1.998844 v -1.198893 z" />
      <ellipse
         style="fill:#ffffff;fill-opacity:1;stroke:#ffffff;stroke-width:0.003;stroke-dasharray:none;stroke-opacity:1"
         id="ellipse8711"
         cx="-15.032139"
         cy="10.696519"
         rx="0.32526755"
         ry="0.33577284" />
    </g>
    <g
       id="g8719"
       transform="matrix(-1,0,0,1,-0.09042876,1.1036432)">
      <path
         id="path8715"
         style="fill:#d8a871;fill-opacity:1;stroke:#d8a871;stroke-width:0.00140249;stroke-dasharray:none;stroke-opacity:1"
         d="m -16.089974,10.097058 v 0.26355 a 0.32526755,0.33577284 0 0 1 0.324528,0.335897 0.32526755,0.33577284 0 0 1 -0.324528,0.335897 v 0.263549 h 1.998844 v -1.198893 z" />
      <ellipse
         style="fill:#ffffff;fill-opacity:1;stroke:#ffffff;stroke-width:0.003;stroke-dasharray:none;stroke-opacity:1"
         id="ellipse8717"
         cx="-15.032139"
         cy="10.696519"
         rx="0.32526755"
         ry="0.33577284" />
    </g>
    <g
       id="g8725"
       transform="matrix(-1,0,0,1,-0.09042876,-0.89635676)">
      <path
         id="path8721"
         style="fill:#d8a871;fill-opacity:1;stroke:#d8a871;stroke-width:0.00140249;stroke-dasharray:none;stroke-opacity:1"
         d="m -16.089974,10.097058 v 0.26355 a 0.32526755,0.33577284 0 0 1 0.324528,0.335897 0.32526755,0.33577284 0 0 1 -0.324528,0.335897 v 0.263549 h 1.998844 v -1.198893 z" />
      <ellipse
         style="fill:#ffffff;fill-opacity:1;stroke:#ffffff;stroke-width:0.003;stroke-dasharray:none;stroke-opacity:1"
         id="ellipse8723"
         cx="-15.032139"
         cy="10.696519"
         rx="0.32526755"
         ry="0.33577284" />
    </g>
    <g
       id="g8731"
       transform="matrix(-1,0,0,1,-0.09042876,-2.8963568)">
      <path
         id="path8727"
         style="fill:#d8a871;fill-opacity:1;stroke:#d8a871;stroke-width:0.00140249;stroke-dasharray:none;stroke-opacity:1"
         d="m -16.089974,10.097058 v 0.26355 a 0.32526755,0.33577284 0 0 1 0.324528,0.335897 0.32526755,0.33577284 0 0 1 -0.324528,0.335897 v 0.263549 h 1.998844 v -1.198893 z" />
      <ellipse
         style="fill:#ffffff;fill-opacity:1;stroke:#ffffff;stroke-width:0.003;stroke-dasharray:none;stroke-opacity:1"
         id="ellipse8729"
         cx="-15.032139"
         cy="10.696519"
         rx="0.32526755"
         ry="0.33577284" />
    </g>
    <g
       id="g9635"
       transform="translate(21.278902,13.201489)">
      <path
         id="rect8785"
         style="fill:#d8a871;fill-opacity:1;stroke:#d8a871;stroke-width:0.00144039;stroke-dasharray:none;stroke-opacity:1"
         d="m -18.778182,9.1994385 v 1.5983525 h 0.301274 a 0.29802543,0.24224232 0 0 1 0.297656,-0.241329 0.29802543,0.24224232 0 0 1 0.298173,0.241329 h 0.301273 V 9.1994385 Z" />
    </g>
    <g
       id="g9639"
       transform="translate(23.278902,13.201489)">
      <path
         id="path9637"
         style="fill:#d8a871;fill-opacity:1;stroke:#d8a871;stroke-width:0.00144039;stroke-dasharray:none;stroke-opacity:1"
         d="m -18.778182,9.1994385 v 1.5983525 h 0.301274 a 0.29802543,0.24224232 0 0 1 0.297656,-0.241329 0.29802543,0.24224232 0 0 1 0.298173,0.241329 h 0.301273 V 9.1994385 Z" />
    </g>
    <g
       id="g9643"
       transform="translate(25.278902,13.201489)">
      <path
         id="path9641"
         style="fill:#d8a871;fill-opacity:1;stroke:#d8a871;stroke-width:0.00144039;stroke-dasharray:none;stroke-opacity:1"
         d="m -18.778182,9.1994385 v 1.5983525 h 0.301274 a 0.29802543,0.24224232 0 0 1 0.297656,-0.241329 0.29802543,0.24224232 0 0 1 0.298173,0.241329 h 0.301273 V 9.1994385 Z" />
    </g>
    <g
       id="g9647"
       transform="translate(27.278902,13.201489)">
      <path
         id="path9645"
         style="fill:#d8a871;fill-opacity:1;stroke:#d8a871;stroke-width:0.00144039;stroke-dasharray:none;stroke-opacity:1"
         d="m -18.778182,9.1994385 v 1.5983525 h 0.301274 a 0.29802543,0.24224232 0 0 1 0.297656,-0.241329 0.29802543,0.24224232 0 0 1 0.298173,0.241329 h 0.301273 V 9.1994385 Z" />
    </g>
    <g
       id="g9651"
       transform="translate(29.278902,13.201489)">
      <path
         id="path9649"
         style="fill:#d8a871;fill-opacity:1;stroke:#d8a871;stroke-width:0.00144039;stroke-dasharray:none;stroke-opacity:1"
         d="m -18.778182,9.1994385 v 1.5983525 h 0.301274 a 0.29802543,0.24224232 0 0 1 0.297656,-0.241329 0.29802543,0.24224232 0 0 1 0.298173,0.241329 h 0.301273 V 9.1994385 Z" />
    </g>
    <g
       id="g9655"
       transform="translate(31.278902,13.201489)">
      <path
         id="path9653"
         style="fill:#d8a871;fill-opacity:1;stroke:#d8a871;stroke-width:0.00144039;stroke-dasharray:none;stroke-opacity:1"
         d="m -18.778182,9.1994385 v 1.5983525 h 0.301274 a 0.29802543,0.24224232 0 0 1 0.297656,-0.241329 0.29802543,0.24224232 0 0 1 0.298173,0.241329 h 0.301273 V 9.1994385 Z" />
    </g>
    <path
       style="fill:#ffffff;fill-opacity:1;stroke:#ffffff;stroke-width:0.000195227;stroke-dasharray:none;stroke-opacity:1"
       d="m 2.8125254,23.933792 c 0.037228,-0.24048 0.145019,-0.383272 0.2885708,-0.382272 0.08257,5.8e-4 0.1643244,0.0587 0.2150315,0.152882 0.02904,0.05394 0.075046,0.212593 0.075046,0.258803 0,0.0168 -0.098486,0.02527 -0.2935569,0.02527 H 2.8040596 Z"
       id="path9822" />
    <path
       style="fill:#ffffff;fill-opacity:1;stroke:#ffffff;stroke-width:0.000195429;stroke-dasharray:none;stroke-opacity:1"
       d="m 4.8062681,23.975514 c 0,-0.03974 0.041565,-0.201668 0.064618,-0.25175 0.1011671,-0.219776 0.332874,-0.230147 0.4458096,-0.01995 0.029041,0.05405 0.075047,0.213033 0.075047,0.259338 0,0.01682 -0.098234,0.02532 -0.2927371,0.02532 -0.1610055,0 -0.2927374,-0.0058 -0.2927374,-0.01296 z"
       id="path9824" />
    <path
       style="fill:#ffffff;fill-opacity:1;stroke:#ffffff;stroke-width:0.000194001;stroke-dasharray:none;stroke-opacity:1"
       d="m 6.8068341,23.975704 c 0,-0.03916 0.041565,-0.198731 0.064619,-0.248084 0.1046991,-0.224138 0.3515398,-0.224138 0.456239,0 0.023054,0.04935 0.064619,0.208929 0.064619,0.248084 0,0.007 -0.1317323,0.01277 -0.2927381,0.01277 -0.1610059,0 -0.2927381,-0.0057 -0.2927389,-0.01277 z"
       id="path9826" />
    <path
       style="fill:#ffffff;fill-opacity:1;stroke:#ffffff;stroke-width:0.000280209;stroke-dasharray:none;stroke-opacity:1"
       d="m 8.815505,23.947941 c 0,-0.09036 0.073668,-0.275215 0.1339501,-0.336127 0.083051,-0.08392 0.2182598,-0.08392 0.3013104,0 0.060282,0.06091 0.1339501,0.245771 0.1339501,0.336127 0,0.02822 -0.084248,0.04008 -0.2846053,0.04008 -0.2003574,0 -0.2846053,-0.01187 -0.2846053,-0.04008 z"
       id="path9828" />
    <path
       style="fill:#ffffff;fill-opacity:1;stroke:#ffffff;stroke-width:0.000275682;stroke-dasharray:none;stroke-opacity:1"
       d="m 10.816728,23.945183 c 1.35e-4,-0.08996 0.06737,-0.256324 0.12589,-0.311498 0.149297,-0.140763 0.283807,-0.09896 0.382915,0.119002 0.104246,0.229261 0.09846,0.235336 -0.224261,0.235336 -0.216222,0 -0.284593,-0.01029 -0.284544,-0.04284 z"
       id="path9830" />
    <path
       style="fill:#ffffff;fill-opacity:1;stroke:#ffffff;stroke-width:0.000276647;stroke-dasharray:none;stroke-opacity:1"
       d="m 12.81789,23.944882 c 1.38e-4,-0.09186 0.06775,-0.258478 0.128148,-0.315829 0.146472,-0.139069 0.289078,-0.08838 0.388453,0.13808 0.09404,0.214309 0.08713,0.220889 -0.232057,0.220889 -0.216222,0 -0.284593,-0.01036 -0.284544,-0.04314 z"
       id="path9832" />
    <path
       style="fill:#ffffff;fill-opacity:1;stroke:#ffffff;stroke-width:0.000522764;stroke-dasharray:none;stroke-opacity:1"
       d="m 60.197841,83.591219 c -0.305112,-0.08201 -0.57836,-0.285397 -0.744532,-0.554175 -0.12678,-0.205062 -0.139406,-0.261302 -0.139406,-0.62099 0,-0.298515 0.0219,-0.43964 0.08929,-0.575472 0.175801,-0.354318 0.60426,-0.669492 0.913488,-0.671962 l 0.126789,-0.001 v 1.244832 c 0,0.684657 -0.0052,1.243431 -0.01153,1.241719 -0.0063,-0.0017 -0.111687,-0.03003 -0.234105,-0.06294 z"
       id="path9834"
       transform="scale(0.26458333)" />
    <path
       style="fill:#ffffff;fill-opacity:1;stroke:#ffffff;stroke-width:0.000522764;stroke-dasharray:none;stroke-opacity:1"
       d="m 60.228254,76.051845 c -0.383962,-0.09145 -0.77138,-0.445358 -0.893889,-0.816562 -0.07171,-0.217269 -0.03542,-0.735865 0.06616,-0.945573 0.171941,-0.354973 0.608149,-0.679827 0.916164,-0.682287 l 0.126789,-10e-4 v 1.244832 c 0,0.684657 -0.01556,1.242707 -0.03458,1.240111 -0.01902,-0.0026 -0.100306,-0.02037 -0.18064,-0.03951 z"
       id="path9836"
       transform="scale(0.26458333)" />
    <path
       style="fill:#ffffff;fill-opacity:1;stroke:#ffffff;stroke-width:0.000522764;stroke-dasharray:none;stroke-opacity:1"
       d="m 60.228254,68.490647 c -0.383962,-0.09145 -0.77138,-0.445357 -0.893889,-0.816561 -0.07152,-0.216706 -0.03552,-0.73568 0.0655,-0.9442 0.162764,-0.335971 0.528128,-0.613087 0.884593,-0.670934 l 0.159012,-0.0258 v 1.250864 c 0,0.687975 -0.01556,1.24874 -0.03458,1.246144 -0.01902,-0.0026 -0.100306,-0.02037 -0.18064,-0.03951 z"
       id="path9838"
       transform="scale(0.26458333)" />
    <path
       style="fill:#ffffff;fill-opacity:1;stroke:#ffffff;stroke-width:0.000522764;stroke-dasharray:none;stroke-opacity:1"
       d="m 60.236001,60.930783 c -0.718881,-0.17389 -1.108414,-0.889857 -0.889322,-1.634583 0.07541,-0.256325 0.500031,-0.680947 0.756356,-0.756356 0.367571,-0.108136 0.340438,-0.202902 0.340438,1.189003 0,0.684657 -0.01556,1.242708 -0.03458,1.240112 -0.01902,-0.0026 -0.09682,-0.01977 -0.172893,-0.03818 z"
       id="path9840"
       transform="scale(0.26458333)" />
    <path
       style="fill:#ffffff;fill-opacity:1;stroke:#ffffff;stroke-width:0.000522764;stroke-dasharray:none;stroke-opacity:1"
       d="m 60.119327,53.341667 c -0.6734,-0.207587 -1.026854,-1.045752 -0.719411,-1.70598 0.128783,-0.276558 0.460288,-0.583258 0.711917,-0.658648 0.357133,-0.107 0.33164,-0.198525 0.33164,1.190611 0,0.966841 -0.01287,1.244114 -0.05763,1.24162 -0.0317,-0.0018 -0.151628,-0.03219 -0.266514,-0.0676 z"
       id="path9842"
       transform="scale(0.26458333)" />
    <path
       style="fill:#ffffff;fill-opacity:1;stroke:#ffffff;stroke-width:0.000522764;stroke-dasharray:none;stroke-opacity:1"
       d="m 60.119327,45.78047 c -0.114886,-0.03542 -0.294593,-0.137756 -0.399348,-0.227423 -0.536801,-0.459481 -0.57959,-1.302053 -0.09226,-1.816706 0.16115,-0.170186 0.548048,-0.373557 0.712017,-0.374269 l 0.103736,-4.5e-4 v 1.244831 c 0,0.966841 -0.01287,1.244114 -0.05763,1.24162 -0.0317,-0.0018 -0.151628,-0.03219 -0.266514,-0.0676 z"
       id="path9844"
       transform="scale(0.26458333)" />
    <path
       style="fill:#ffffff;fill-opacity:1;stroke:#ffffff;stroke-width:0.000522764;stroke-dasharray:none;stroke-opacity:1"
       d="m 60.119327,38.219272 c -0.114886,-0.03541 -0.294593,-0.137755 -0.399348,-0.227422 -0.536801,-0.459482 -0.57959,-1.302054 -0.09226,-1.816706 0.16115,-0.170186 0.548048,-0.373557 0.712017,-0.374269 l 0.103736,-4.51e-4 v 1.244832 c 0,0.966841 -0.01287,1.244114 -0.05763,1.24162 -0.0317,-0.0018 -0.151628,-0.03219 -0.266514,-0.0676 z"
       id="path9846"
       transform="scale(0.26458333)" />
    <path
       style="fill:#ffffff;fill-opacity:1;stroke:#ffffff;stroke-width:0.000522764;stroke-dasharray:none;stroke-opacity:1"
       d="m 60.0924,30.654331 c -0.104338,-0.037 -0.278325,-0.143135 -0.386638,-0.235847 -0.766407,-0.656016 -0.42052,-1.972234 0.566962,-2.157486 l 0.170749,-0.03203 v 1.249962 c 0,1.403728 0.02804,1.309856 -0.351073,1.175404 z"
       id="path9848"
       transform="scale(0.26458333)" />
    <path
       style="fill:#ffffff;fill-opacity:1;stroke:#ffffff;stroke-width:0.000522764;stroke-dasharray:none;stroke-opacity:1"
       d="m 0,82.406486 c 0,-1.234069 3.8192806e-4,-1.238879 0.09838687,-1.238879 0.21162269,0 0.47413619,0.118497 0.68750797,0.310337 0.29453516,0.264812 0.43119586,0.608058 0.40042596,1.005735 -0.025167,0.325264 -0.1172682,0.52894 -0.34998715,0.773973 -0.20235419,0.213062 -0.3552221,0.297832 -0.62949319,0.349071 L 0,83.645365 Z"
       id="path9850"
       transform="scale(0.26458333)" />
    <path
       style="fill:#ffffff;fill-opacity:1;stroke:#ffffff;stroke-width:0.000522764;stroke-dasharray:none;stroke-opacity:1"
       d="m 0,74.85212 v -1.24571 l 0.12678837,4.51e-4 c 0.20800359,7.39e-4 0.58141009,0.204028 0.76174345,0.414707 0.22457538,0.262366 0.32860408,0.583467 0.29808148,0.920076 -0.052635,0.580468 -0.43773283,0.99038 -1.05982493,1.128114 L 0,76.09783 Z"
       id="path9852"
       transform="scale(0.26458333)" />
    <path
       style="fill:#ffffff;fill-opacity:1;stroke:#ffffff;stroke-width:0.000522764;stroke-dasharray:none;stroke-opacity:1"
       d="m 0,67.293708 v -1.248495 l 0.12678837,4.5e-4 c 0.20800359,7.39e-4 0.58141009,0.204029 0.76174345,0.414708 0.63420138,0.740922 0.23599608,1.84625 -0.73869102,2.050441 L 0,68.542202 Z"
       id="path9854"
       transform="scale(0.26458333)" />
    <path
       style="fill:#ffffff;fill-opacity:1;stroke:#ffffff;stroke-width:0.000522764;stroke-dasharray:none;stroke-opacity:1"
       d="m 0,59.730936 v -1.24692 l 0.12678837,4.5e-4 c 0.20800359,7.39e-4 0.58141009,0.204029 0.76174345,0.414708 0.62567208,0.730957 0.22522228,1.876569 -0.71563859,2.047308 L 0,60.977857 Z"
       id="path9856"
       transform="scale(0.26458333)" />
    <path
       style="fill:#ffffff;fill-opacity:1;stroke:#ffffff;stroke-width:0.0014786;stroke-dasharray:none;stroke-opacity:1"
       d="m 0,52.161696 c 0,-0.681363 0.02657979,-1.238841 0.05906621,-1.238841 0.25538408,0 0.77644651,0.37642 0.92874531,0.670933 0.22646398,0.437934 0.23227158,0.649307 0.0300346,1.093168 -0.13108393,0.287698 -0.69577998,0.71358 -0.9461681,0.71358 C 0.0322551,53.400536 0,52.843058 0,52.161696 Z"
       id="path9866"
       transform="scale(0.26458333)" />
    <path
       style="fill:#ffffff;fill-opacity:1;stroke:#ffffff;stroke-width:0.0014786;stroke-dasharray:none;stroke-opacity:1"
       d="m 0,44.59825 c 0,-0.681362 0.02657979,-1.238841 0.05906621,-1.238841 0.25538408,0 0.77644651,0.37642 0.92874531,0.670934 C 1.2142755,44.468276 1.2200831,44.679649 1.0178461,45.12351 0.88676217,45.411208 0.32206612,45.83709 0.071678,45.83709 0.0322551,45.83709 0,45.279612 0,44.59825 Z"
       id="path9868"
       transform="scale(0.26458333)" />
    <path
       style="fill:#ffffff;fill-opacity:1;stroke:#ffffff;stroke-width:0.0014786;stroke-dasharray:none;stroke-opacity:1"
       d="m 0,37.034804 c 0,-0.681362 0.02657979,-1.23884 0.05906621,-1.23884 0.25538408,0 0.77644651,0.376419 0.92874531,0.670933 C 1.2142755,36.90483 1.2200831,37.116203 1.0178461,37.560065 0.88676217,37.847763 0.32206612,38.273644 0.071678,38.273644 0.0322551,38.273644 0,37.716166 0,37.034804 Z"
       id="path9870"
       transform="scale(0.26458333)" />
    <path
       style="fill:#ffffff;fill-opacity:1;stroke:#ffffff;stroke-width:0.0014786;stroke-dasharray:none;stroke-opacity:1"
       d="m 0,29.471358 c 0,-0.681362 0.02657979,-1.23884 0.05906621,-1.23884 0.25538408,0 0.77644651,0.376419 0.92874531,0.670933 0.22646398,0.437933 0.23227158,0.649306 0.0300346,1.093168 C 0.88676217,30.284317 0.32206612,30.710198 0.071678,30.710198 0.0322551,30.710198 0,30.15272 0,29.471358 Z"
       id="path9872"
       transform="scale(0.26458333)" />
    <rect
       style="fill:#b3b3b3;fill-opacity:1;stroke:#ffffff;stroke-width:0.00173497;stroke-dasharray:none;stroke-opacity:1"
       id="rect9874"
       width="0.61410195"
       height="0.77643895"
       x="13.728048"
       y="5.7668223" />
    <rect
       style="fill:#b3b3b3;fill-opacity:1;stroke:#ffffff;stroke-width:0.00173497;stroke-dasharray:none;stroke-opacity:1"
       id="rect9928"
       width="0.61410195"
       height="0.77643895"
       x="14.914256"
       y="5.7668223" />
    <rect
       style="fill:#f9f9f9;fill-opacity:1;stroke:#ffffff;stroke-width:0.00173497;stroke-dasharray:none;stroke-opacity:1"
       id="rect9930"
       width="1.0026325"
       height="0.56089067"
       x="14.096334"
       y="5.8745966" />
    <g
       inkscape:label="QR Code: 0008DCXXXXXX"
       transform="matrix(0.07945709,0,0,0.08618579,2.9487061,8.2012241)"
       id="g11157">
      <rect
         x="0"
         y="0"
         width="116"
         height="116"
         style="fill:#ffffff;stroke:none"
         id="rect11151" />
      <g
         style="fill:#000000;stroke:none"
         id="g11155">
        <path
           d="M 95.6,100 H 88.4 C 88.179086,100 88,99.820914 88,99.6 V 96.4 C 88,96.179086 87.820914,96 87.6,96 H 84.4 C 84.179086,96 84,95.820914 84,95.6 V 92.4 C 84,92.179086 84.179086,92 84.4,92 h 3.2 C 87.820914,92 88,91.820914 88,91.6 V 88.4 C 88,88.179086 88.179086,88 88.4,88 h 3.2 c 0.220914,0 0.4,0.179086 0.4,0.4 v 7.2 c 0,0.220914 0.179086,0.4 0.4,0.4 h 3.2 c 0.220914,0 0.4,0.179086 0.4,0.4 v 3.2 c 0,0.220914 -0.179086,0.4 -0.4,0.4 z m -24,0 H 68.4 C 68.179086,100 68,99.820914 68,99.6 V 96.4 C 68,96.179086 67.820914,96 67.6,96 H 64.4 C 64.179086,96 64,95.820914 64,95.6 V 92.4 C 64,92.179086 63.820914,92 63.6,92 H 60.4 C 60.179086,92 60,91.820914 60,91.6 V 88.4 C 60,88.179086 59.820914,88 59.6,88 H 56.4 C 56.179086,88 56,87.820914 56,87.6 V 84 h 12 v 7.6 c 0,0.220914 0.179086,0.4 0.4,0.4 h 3.2 c 0.220914,0 0.4,0.179086 0.4,0.4 v 7.2 c 0,0.220914 -0.179086,0.4 -0.4,0.4 z m -20,0 H 48.4 C 48.179086,100 48,99.820914 48,99.6 V 80.4 C 48,80.179086 48.179086,80 48.4,80 H 56 v 4 H 52.4 C 52.179086,84 52,84.179086 52,84.4 v 7.2 c 0,0.220914 0.179086,0.4 0.4,0.4 h 3.2 c 0.220914,0 0.4,0.179086 0.4,0.4 v 3.2 C 56,95.820914 55.820914,96 55.6,96 H 52.4 C 52.179086,96 52,96.179086 52,96.4 v 3.2 c 0,0.220914 -0.179086,0.4 -0.4,0.4 z m -8,0 H 16.4 C 16.179086,100 16,99.820914 16,99.6 V 72.4 C 16,72.179086 16.179086,72 16.4,72 h 27.2 c 0.220914,0 0.4,0.179086 0.4,0.4 v 27.2 c 0,0.220914 -0.179086,0.4 -0.4,0.4 z m 36,-4 H 76.4 C 76.179086,96 76,95.820914 76,95.6 V 92.4 C 76,92.179086 76.179086,92 76.4,92 h 3.2 c 0.220914,0 0.4,0.179086 0.4,0.4 v 3.2 C 80,95.820914 79.820914,96 79.6,96 Z M 40,95.6 V 76.4 C 40,76.179086 39.820914,76 39.6,76 H 20.4 C 20.179086,76 20,76.179086 20,76.4 v 19.2 c 0,0.220914 0.179086,0.4 0.4,0.4 H 39.6 C 39.820914,96 40,95.820914 40,95.6 Z M 35.6,92 H 24.4 C 24.179086,92 24,91.820914 24,91.6 V 80.4 C 24,80.179086 24.179086,80 24.4,80 h 11.2 c 0.220914,0 0.4,0.179086 0.4,0.4 v 11.2 c 0,0.220914 -0.179086,0.4 -0.4,0.4 z m 44,-4 H 72.4 C 72.179086,88 72,87.820914 72,87.6 V 84 h 3.6 C 75.820914,84 76,83.820914 76,83.6 V 80.4 C 76,80.179086 76.179086,80 76.4,80 H 80 v 7.6 c 0,0.220914 -0.179086,0.4 -0.4,0.4 z m 20,-4 H 92.4 C 92.179086,84 92,83.820914 92,83.6 V 80 h 7.6 c 0.220914,0 0.4,0.179086 0.4,0.4 v 3.2 c 0,0.220914 -0.179086,0.4 -0.4,0.4 z m -12,0 H 84.4 C 84.179086,84 84,83.820914 84,83.6 V 80 h 4 v 3.6 c 0,0.220914 -0.179086,0.4 -0.4,0.4 z m -16,0 H 68 V 80.4 C 68,80.179086 67.820914,80 67.6,80 H 64.4 C 64.179086,80 64,79.820914 64,79.6 V 68 h 4 v 7.6 c 0,0.220914 0.179086,0.4 0.4,0.4 h 3.2 c 0.220914,0 0.4,0.179086 0.4,0.4 V 84 Z m 20,-4 H 88 V 68 h 11.6 c 0.220914,0 0.4,0.179086 0.4,0.4 v 3.2 c 0,0.220914 -0.179086,0.4 -0.4,0.4 H 92.4 C 92.179086,72 92,72.179086 92,72.4 V 80 Z m -8,0 H 80 V 76.4 C 80,76.179086 80.179086,76 80.4,76 h 3.2 c 0.220914,0 0.4,0.179086 0.4,0.4 V 80 Z m -24,0 H 56 V 76.4 C 56,76.179086 55.820914,76 55.6,76 H 48.4 C 48.179086,76 48,75.820914 48,75.6 V 68.4 C 48,68.179086 47.820914,68 47.6,68 H 36.4 C 36.179086,68 36,67.820914 36,67.6 V 64.4 C 36,64.179086 35.820914,64 35.6,64 H 32.4 C 32.179086,64 32,63.820914 32,63.6 V 60.4 C 32,60.179086 31.820914,60 31.6,60 H 28 V 56.4 C 28,56.179086 28.179086,56 28.4,56 h 3.2 C 31.820914,56 32,55.820914 32,55.6 V 52.4 C 32,52.179086 31.820914,52 31.6,52 H 24.4 C 24.179086,52 24,52.179086 24,52.4 V 60 H 20.4 C 20.179086,60 20,60.179086 20,60.4 V 64 H 16.4 C 16.179086,64 16,63.820914 16,63.6 V 56.4 C 16,56.179086 16.179086,56 16.4,56 h 3.2 C 19.820914,56 20,55.820914 20,55.6 V 52.4 C 20,52.179086 19.820914,52 19.6,52 H 16.4 C 16.179086,52 16,51.820914 16,51.6 V 48.4 C 16,48.179086 16.179086,48 16.4,48 h 19.2 c 0.220914,0 0.4,0.179086 0.4,0.4 v 11.2 c 0,0.220914 0.179086,0.4 0.4,0.4 H 40 v 3.6 c 0,0.220914 0.179086,0.4 0.4,0.4 h 11.2 c 0.220914,0 0.4,0.179086 0.4,0.4 v 3.2 c 0,0.220914 0.179086,0.4 0.4,0.4 h 3.2 C 55.820914,68 56,67.820914 56,67.6 V 64.4 C 56,64.179086 56.179086,64 56.4,64 h 7.2 c 0.220914,0 0.4,0.179086 0.4,0.4 V 68 H 60.4 C 60.179086,68 60,68.179086 60,68.4 v 11.2 c 0,0.220914 -0.179086,0.4 -0.4,0.4 z m 16,-8 H 72.4 C 72.179086,72 72,71.820914 72,71.6 V 68 h 4 v 3.6 c 0,0.220914 -0.179086,0.4 -0.4,0.4 z m 12,-4 H 76 V 60.4 C 76,60.179086 76.179086,60 76.4,60 h 3.2 c 0.220914,0 0.4,0.179086 0.4,0.4 v 3.2 c 0,0.220914 0.179086,0.4 0.4,0.4 H 88 v 4 z m -16,0 H 68 V 60.4 C 68,60.179086 68.179086,60 68.4,60 h 3.2 c 0.220914,0 0.4,0.179086 0.4,0.4 V 68 Z m -48,0 H 20.4 C 20.179086,68 20,67.820914 20,67.6 V 64 h 4 v 3.6 c 0,0.220914 -0.179086,0.4 -0.4,0.4 z m 68,-4 H 88 V 52 h 3.6 C 91.820914,52 92,51.820914 92,51.6 V 48.4 C 92,48.179086 92.179086,48 92.4,48 h 3.2 c 0.220914,0 0.4,0.179086 0.4,0.4 v 3.2 c 0,0.220914 0.179086,0.4 0.4,0.4 h 3.2 c 0.220914,0 0.4,0.179086 0.4,0.4 v 3.2 c 0,0.220914 -0.179086,0.4 -0.4,0.4 H 92.4 C 92.179086,56 92,56.179086 92,56.4 v 7.2 c 0,0.220914 -0.179086,0.4 -0.4,0.4 z m -64,0 H 24 v -4 h 4 v 3.6 c 0,0.220914 -0.179086,0.4 -0.4,0.4 z m 36,-4 H 48.4 C 48.179086,60 48,59.820914 48,59.6 V 56 h 3.6 C 51.820914,56 52,55.820914 52,55.6 V 52.4 C 52,52.179086 51.820914,52 51.6,52 H 48.4 C 48.179086,52 48,52.179086 48,52.4 V 56 H 44 V 52.4 C 44,52.179086 43.820914,52 43.6,52 H 40.4 C 40.179086,52 40,51.820914 40,51.6 V 48.4 C 40,48.179086 40.179086,48 40.4,48 H 56 v 7.6 c 0,0.220914 0.179086,0.4 0.4,0.4 H 64 v 3.6 c 0,0.220914 -0.179086,0.4 -0.4,0.4 z m -20,0 H 40 V 56.4 C 40,56.179086 40.179086,56 40.4,56 H 44 v 3.6 c 0,0.220914 -0.179086,0.4 -0.4,0.4 z m 32,-4 H 72.4 C 72.179086,56 72,55.820914 72,55.6 V 52 h 4 v 3.6 c 0,0.220914 -0.179086,0.4 -0.4,0.4 z m -8,0 H 64 V 48.4 C 64,48.179086 63.820914,48 63.6,48 H 56 V 40.4 C 56,40.179086 55.820914,40 55.6,40 H 52.4 C 52.179086,40 52,40.179086 52,40.4 v 3.2 C 52,43.820914 51.820914,44 51.6,44 H 48.4 C 48.179086,44 48,43.820914 48,43.6 V 36.4 C 48,36.179086 48.179086,36 48.4,36 h 7.2 C 55.820914,36 56,35.820914 56,35.6 V 32.4 C 56,32.179086 56.179086,32 56.4,32 h 3.2 C 59.820914,32 60,31.820914 60,31.6 V 28.4 C 60,28.179086 60.179086,28 60.4,28 h 3.2 c 0.220914,0 0.4,0.179086 0.4,0.4 v 3.2 c 0,0.220914 0.179086,0.4 0.4,0.4 h 3.2 c 0.220914,0 0.4,0.179086 0.4,0.4 v 15.2 c 0,0.220914 0.179086,0.4 0.4,0.4 h 3.2 c 0.220914,0 0.4,0.179086 0.4,0.4 V 52 H 68.4 C 68.179086,52 68,52.179086 68,52.4 v 3.2 c 0,0.220914 -0.179086,0.4 -0.4,0.4 z m 20,-4 H 84.4 C 84.179086,52 84,51.820914 84,51.6 V 48.4 C 84,48.179086 84.179086,48 84.4,48 h 3.2 c 0.220914,0 0.4,0.179086 0.4,0.4 V 52 Z m -8,0 H 76 V 48.4 C 76,48.179086 76.179086,48 76.4,48 h 3.2 c 0.220914,0 0.4,0.179086 0.4,0.4 v 3.2 c 0,0.220914 -0.179086,0.4 -0.4,0.4 z m 20,-8 H 72.4 C 72.179086,44 72,43.820914 72,43.6 V 16.4 C 72,16.179086 72.179086,16 72.4,16 h 27.2 c 0.220914,0 0.4,0.179086 0.4,0.4 v 27.2 c 0,0.220914 -0.179086,0.4 -0.4,0.4 z M 64,43.6 V 36.4 C 64,36.179086 63.820914,36 63.6,36 H 60.4 C 60.179086,36 60,36.179086 60,36.4 v 7.2 c 0,0.220914 0.179086,0.4 0.4,0.4 h 3.2 C 63.820914,44 64,43.820914 64,43.6 Z M 43.6,44 H 16.4 C 16.179086,44 16,43.820914 16,43.6 V 16.4 C 16,16.179086 16.179086,16 16.4,16 h 27.2 c 0.220914,0 0.4,0.179086 0.4,0.4 V 43.6 C 44,43.820914 43.820914,44 43.6,44 Z M 96,39.6 V 20.4 C 96,20.179086 95.820914,20 95.6,20 H 76.4 C 76.179086,20 76,20.179086 76,20.4 v 19.2 c 0,0.220914 0.179086,0.4 0.4,0.4 h 19.2 c 0.220914,0 0.4,-0.179086 0.4,-0.4 z m -56,0 V 20.4 C 40,20.179086 39.820914,20 39.6,20 H 20.4 C 20.179086,20 20,20.179086 20,20.4 v 19.2 c 0,0.220914 0.179086,0.4 0.4,0.4 H 39.6 C 39.820914,40 40,39.820914 40,39.6 Z M 91.6,36 H 80.4 C 80.179086,36 80,35.820914 80,35.6 V 24.4 C 80,24.179086 80.179086,24 80.4,24 h 11.2 c 0.220914,0 0.4,0.179086 0.4,0.4 v 11.2 c 0,0.220914 -0.179086,0.4 -0.4,0.4 z m -56,0 H 24.4 C 24.179086,36 24,35.820914 24,35.6 V 24.4 C 24,24.179086 24.179086,24 24.4,24 h 11.2 c 0.220914,0 0.4,0.179086 0.4,0.4 v 11.2 c 0,0.220914 -0.179086,0.4 -0.4,0.4 z m 16,-4 H 48.4 C 48.179086,32 48,31.820914 48,31.6 V 28.4 C 48,28.179086 48.179086,28 48.4,28 H 52 v 3.6 c 0,0.220914 -0.179086,0.4 -0.4,0.4 z m 4,-4 H 52 v -4 h 3.6 c 0.220914,0 0.4,0.179086 0.4,0.4 v 3.2 c 0,0.220914 -0.179086,0.4 -0.4,0.4 z m 8,-4 H 60.4 C 60.179086,24 60,23.820914 60,23.6 V 20.4 C 60,20.179086 60.179086,20 60.4,20 H 64 v 3.6 c 0,0.220914 -0.179086,0.4 -0.4,0.4 z m -12,0 H 48.4 C 48.179086,24 48,23.820914 48,23.6 V 20.4 C 48,20.179086 48.179086,20 48.4,20 H 52 v 4 z m 16,-4 H 64 V 16.4 C 64,16.179086 64.179086,16 64.4,16 h 3.2 c 0.220914,0 0.4,0.179086 0.4,0.4 v 3.2 c 0,0.220914 -0.179086,0.4 -0.4,0.4 z m -12,0 H 52 V 16.4 C 52,16.179086 52.179086,16 52.4,16 h 3.2 c 0.220914,0 0.4,0.179086 0.4,0.4 v 3.2 c 0,0.220914 -0.179086,0.4 -0.4,0.4 z"
           id="path11153" />
      </g>
    </g>
    <text
       xml:space="preserve"
       style="font-size:0.811106px;line-height:1.25;font-family:sans-serif;stroke-width:0.118349"
       x="8.439208"
       y="9.0699511"
       id="text11699"
       transform="scale(1.0177008,0.98260706)"><tspan
         sodipodi:role="line"
         id="tspan11697"
         style="font-style:normal;font-variant:normal;font-weight:normal;font-stretch:normal;font-size:0.811106px;font-family:sans-serif;-inkscape-font-specification:sans-serif;stroke-width:0.118349"
         x="8.439208"
         y="9.0699511">WizFi360</tspan></text>
    <text
       xml:space="preserve"
       style="font-size:1.11901px;line-height:1.25;font-family:sans-serif;stroke-width:0.167853"
       x="3.2731197"
       y="15.430275"
       id="text11703"
       transform="scale(0.84636288,1.1815263)"><tspan
         sodipodi:role="line"
         id="tspan11701"
         style="font-size:1.11901px;stroke-width:0.167853"
         x="3.2731197"
         y="15.430275">MAC:0008DCXXXXXX</tspan></text>
    <text
       xml:space="preserve"
       style="font-size:1.02287px;line-height:1.25;font-family:sans-serif;stroke-width:0.153433"
       x="3.5940163"
       y="15.190609"
       id="text12483"
       transform="scale(0.77365069,1.292573)"><tspan
         sodipodi:role="line"
         id="tspan12481"
         style="font-size:1.02287px;stroke-width:0.153433"
         x="3.5940163"
         y="15.190609">SN:XXXXXXXXXXXXXXXXX</tspan></text>
    <g
       id="g13330"
       transform="matrix(0.62520814,0,0,0.70132929,10.342855,2.5335054)">
      <text
         xml:space="preserve"
         style="font-size:1.76389px;line-height:1.25;font-family:sans-serif;stroke-width:0.264583"
         x="-11.244655"
         y="7.1086311"
         id="text12487"><tspan
           sodipodi:role="line"
           id="tspan12485"
           style="stroke-width:0.264583"
           x="-11.244655"
           y="7.1086311" /><tspan
           sodipodi:role="line"
           style="font-style:normal;font-variant:normal;font-weight:bold;font-stretch:normal;font-family:sans-serif;-inkscape-font-specification:'sans-serif Bold';stroke-width:0.264583"
           id="tspan12489"
           x="-11.244655"
           y="9.3134937">WIZnet</tspan></text>
      <path
         id="path13269"
         style="fill:#ff0000;fill-opacity:1;stroke:#ff0000;stroke-width:0.00420553;stroke-dasharray:none;stroke-opacity:1"
         d="m -10.4795,7.2023814 a 0.64798532,1.2792485 46.549027 0 0 -1.347199,0.8790132 0.64798532,1.2792485 46.549027 0 0 0.0505,1.1090336 0.64798532,1.2792485 46.549027 0 0 0.02008,0.00204 0.59166343,1.1850821 38.529328 0 1 0.204819,-0.8913344 0.59166343,1.1850821 38.529328 0 1 1.231806,-0.8728512 0.59166343,1.1850821 38.529328 0 1 0.26684,0.290609 0.64798532,1.2792485 46.549027 0 0 -0.317328,-0.5103613 0.64798532,1.2792485 46.549027 0 0 -0.109613,-0.00616 z" />
    </g>
    <path
       id="text22480"
       style="font-size:1.69634px;line-height:1.25;font-family:sans-serif;stroke-width:0.309492"
       d="m 4.3607441,20.057395 c -0.2007475,0.0011 -0.3589258,0.07988 -0.4747417,0.235678 -0.116625,0.156131 -0.1747272,0.36958 -0.1747272,0.641114 0,0.270778 0.058102,0.484812 0.1747272,0.641697 0.1158159,0.155047 0.2739942,0.233437 0.4747417,0.234511 V 21.621969 C 4.2150968,21.618169 4.1027685,21.559509 4.024158,21.445794 3.9428194,21.327376 3.9022553,21.156692 3.9022553,20.934187 c 0,-0.223259 0.040565,-0.393361 0.1219027,-0.511025 0.07861,-0.114444 0.1909441,-0.173501 0.3365861,-0.177341 z" />
    <g
       id="g22595"
       transform="matrix(0.66741965,0,0,1,1.3408528,0)">
      <path
         id="path22537"
         style="font-size:1.69634px;line-height:1.25;font-family:sans-serif;stroke-width:0.369947"
         d="m 6.0874999,20.057395 c -0.2868339,0.0011 -0.5128438,0.07988 -0.678325,0.235678 -0.1666372,0.156131 -0.2496553,0.36958 -0.2496553,0.641114 0,0.270778 0.083018,0.484812 0.2496553,0.641697 0.1654812,0.155047 0.3914911,0.233437 0.678325,0.234511 V 21.621969 C 5.8793947,21.618169 5.7188968,21.559509 5.6065758,21.445794 5.4903567,21.327376 5.4323976,21.156692 5.4323976,20.934187 c 0,-0.223259 0.057961,-0.393361 0.1741782,-0.511025 0.1123204,-0.114444 0.2728265,-0.173501 0.4809241,-0.177341 z" />
      <rect
         style="fill:#000000;fill-opacity:1;stroke:#ff0000;stroke-width:0.00280501;stroke-dasharray:none;stroke-opacity:1"
         id="rect22539"
         width="0.69719499"
         height="0.26570773"
         x="5.1594224"
         y="20.781403" />
    </g>
    <g
       id="g22620"
       transform="matrix(0.9033054,0,0,1.193987,20.348637,3.2249818)">
      <text
         xml:space="preserve"
         style="font-size:1.71703px;line-height:1.25;font-family:sans-serif;stroke-width:0.257553"
         x="-14.099167"
         y="15.062697"
         id="text22599"
         transform="scale(0.97343054,1.0272947)"><tspan
           sodipodi:role="line"
           id="tspan22597"
           style="stroke-width:0.257553"
           x="-14.099167"
           y="15.062697">C</tspan></text>
      <text
         xml:space="preserve"
         style="font-size:1.3368px;line-height:1.25;font-family:sans-serif;stroke-width:0.200519"
         x="-13.303166"
         y="15.3282"
         id="text22603"
         transform="scale(1.0088712,0.9912068)"><tspan
           sodipodi:role="line"
           id="tspan22601"
           style="stroke-width:0.200519"
           x="-13.303166"
           y="15.3282">c</tspan></text>
      <path
         id="text22607"
         style="font-size:1.76389px;line-height:1.25;font-family:sans-serif;stroke-width:0.264583"
         d="m -14.259676,14.188891 v 1.28571 l 0.17415,-0.144178 v -0.469738 h 0.510046 V 14.71444 h -0.510046 v -0.379305 h 0.369486 l 0.131258,-0.146244 z" />
    </g>
    <g
       id="g23580"
       transform="matrix(0.98462006,0,0,0.84277546,30.097997,7.7432322)">
      <path
         id="text22854"
         style="font-size:2.22123px;line-height:1.25;font-family:sans-serif;fill:#ffffff;fill-opacity:1;stroke:#000000;stroke-width:0.125927;stroke-dasharray:none;stroke-opacity:1"
         d="m -20.012241,14.380502 v 1.799144 h 0.321876 V 15.77022 c 0.03136,0.0624 0.06742,0.120836 0.114504,0.171058 0.140993,0.149673 0.33426,0.224703 0.579376,0.224703 0.05965,0 0.117352,-0.005 0.173075,-0.01518 v -0.182698 c -0.05134,0.01174 -0.104743,0.01771 -0.159883,0.01771 -0.185102,0 -0.326965,-0.05624 -0.425298,-0.169034 -0.09834,-0.113517 -0.147747,-0.277098 -0.147747,-0.490399 0,-0.214025 0.04941,-0.377603 0.147747,-0.4904 0.09833,-0.11352 0.240196,-0.170046 0.425298,-0.170046 0.05741,0 0.112937,0.0065 0.166215,0.01923 V 14.50196 c -0.05749,-0.01073 -0.117141,-0.01619 -0.179407,-0.01619 -0.245116,0 -0.438383,0.07532 -0.579376,0.225715 -0.04705,0.04994 -0.08316,0.10829 -0.114504,0.170552 v -0.501533 z"
         transform="scale(0.97934079,1.021095)" />
      <path
         id="text23344"
         style="font-size:1.18503px;line-height:1.25;font-family:sans-serif;stroke-width:0.177755"
         d="m -19.50547,14.510163 c -0.125001,0.0024 -0.223741,0.04265 -0.296612,0.120383 -0.07522,0.07985 -0.112582,0.189224 -0.112582,0.328095 0,0.138485 0.03736,0.247858 0.112582,0.328094 0.07522,0.07985 0.178291,0.119397 0.309061,0.119397 0.02149,0 0.04225,-0.0015 0.06279,-0.0039 v -0.09572 c -0.01816,0.0026 -0.03676,0.0039 -0.05575,0.0039 -0.09875,0 -0.174327,-0.03011 -0.226789,-0.09029 -0.05246,-0.06056 -0.07903,-0.147693 -0.07903,-0.261489 0,-0.114183 0.02656,-0.201806 0.07903,-0.261982 0.05246,-0.06056 0.128036,-0.09078 0.226789,-0.09078 0.0046,0 0.009,-1.51e-4 0.01353,0 v -0.09522 c -0.0067,-2.4e-4 -0.01373,-4.93e-4 -0.02057,-4.93e-4 -0.0041,0 -0.0084,-7.9e-5 -0.01245,0 z"
         transform="scale(0.95473916,1.0474065)" />
      <rect
         style="fill:#ffffff;fill-opacity:1;stroke:#ffffff;stroke-width:0.113034;stroke-dasharray:none;stroke-opacity:1"
         id="rect23354"
         width="0.090934291"
         height="0.26726618"
         x="-18.495882"
         y="16.264589" />
      <rect
         style="fill:#000000;fill-opacity:1;stroke:#000000;stroke-width:0.07395;stroke-dasharray:none;stroke-opacity:1"
         id="rect23365"
         width="0.031666812"
         height="0.24789038"
         x="-18.619448"
         y="16.08144" />
    </g>
  </g>
  <metadata
     id="metadata1822">
    <rdf:RDF>
      <cc:Work
         rdf:about="">
        <dc:title>WizFi360-PA</dc:title>
        <dc:creator>
          <cc:Agent>
            <dc:title>Amal Mathew</dc:title>
          </cc:Agent>
        </dc:creator>
        <dc:rights>
          <cc:Agent>
            <dc:title>CC BY-SA</dc:title>
          </cc:Agent>
        </dc:rights>
        <dc:publisher>
          <cc:Agent>
            <dc:title>Tinkererway</dc:title>
          </cc:Agent>
        </dc:publisher>
        <dc:contributor>
          <cc:Agent>
            <dc:title>Amal Mathew</dc:title>
          </cc:Agent>
        </dc:contributor>
        <cc:license
           rdf:resource="http://creativecommons.org/licenses/by-sa/4.0/" />
      </cc:Work>
      <cc:License
         rdf:about="http://creativecommons.org/licenses/by-sa/4.0/">
        <cc:permits
           rdf:resource="http://creativecommons.org/ns#Reproduction" />
        <cc:permits
           rdf:resource="http://creativecommons.org/ns#Distribution" />
        <cc:requires
           rdf:resource="http://creativecommons.org/ns#Notice" />
        <cc:requires
           rdf:resource="http://creativecommons.org/ns#Attribution" />
        <cc:permits
           rdf:resource="http://creativecommons.org/ns#DerivativeWorks" />
        <cc:requires
           rdf:resource="http://creativecommons.org/ns#ShareAlike" />
      </cc:License>
    </rdf:RDF>
  </metadata>
</svg>
